<svg width="145mm" height="225mm" viewBox="0 0 513.77953 797.24409" id="svg3343" version="1.1" xmlns:inkscape="http://www.inkscape.org/namespaces/inkscape" xmlns:sodipodi="http://sodipodi.sourceforge.net/DTD/sodipodi-0.dtd" xmlns="http://www.w3.org/2000/svg" xmlns:svg="http://www.w3.org/2000/svg" xmlns:rdf="http://www.w3.org/1999/02/22-rdf-syntax-ns#" xmlns:cc="http://creativecommons.org/ns#" xmlns:dc="http://purl.org/dc/elements/1.1/" xmlns:osb="http://www.openswatchbook.org/uri/2009/osb">
      <path style="opacity:1;fill:#ff0000;fill-opacity:1;stroke:none;stroke-opacity:1;stroke-width:5;stroke-miterlimit:5.5;stroke-dasharray:none;fill-rule:evenodd" d="m 76.319341,494.35323 c -13.74988,-4.4989 -23.07232,-25.3014 -20.70059,-46.1922 2.74082,-24.14193 17.44549,-49.64162 47.858039,-82.99166 9.56063,-10.48409 38.98755,-41.32394 47.87288,-50.1715 11.80396,-11.75377 24.12609,-15.43814 41.43751,-12.38998 10.72571,1.88855 20.50948,5.52715 41.34356,15.3757 39.70066,18.76704 50.24984,22.49208 66.07143,23.33056 16.63562,0.88162 29.15224,-3.12429 67.85714,-21.71749 27.52951,-13.22473 36.73143,-16.44511 48.93175,-17.12458 12.71683,-0.70823 19.47125,1.86493 28.24855,10.76156 9.6864,9.8181 13.66808,19.92881 12.98107,32.96302 -1.32978,25.22923 -23.15944,56.50554 -66.25579,94.92758 -12.37609,11.03379 -42.46389,36.29789 -47.47701,39.86549 -16.2082,11.5346 -34.11757,12.7255 -56.4652,3.7547 -5.93345,-2.3819 -11.02951,-4.9436 -35.68205,-17.937 -17.87836,-9.4229 -26.88125,-12.9632 -37.81411,-14.8697 -7.84974,-1.3689 -11.47252,-1.3778 -19.05222,-0.047 -12.83218,2.2528 -25.06544,7.3253 -53.51193,22.189 -30.47089,15.9213 -43.026339,20.8215 -54.974499,21.4556 -4.86713,0.2583 -6.98329,0.024 -10.66853,-1.182 z"/>
    </svg>